<?xml version="1.0" standalone="no"?>
<!DOCTYPE svg PUBLIC "-//W3C//DTD SVG 20010904//EN"
 "http://www.w3.org/TR/2001/REC-SVG-20010904/DTD/svg10.dtd">
<svg version="1.0" xmlns="http://www.w3.org/2000/svg"
 width="2500.000000pt" height="2500.000000pt" viewBox="0 0 2500.000000 2500.000000"
 preserveAspectRatio="xMidYMid meet">
<metadata>
Created by potrace 1.11, written by Peter Selinger 2001-2013
</metadata>
<g transform="translate(0.000000,2500.000000) scale(0.100000,-0.100000)"
fill="#000000" stroke="none">
<path d="M7267 18422 c-21 -23 -22 -30 -22 -268 0 -157 3 -244 10 -245 5 -1
21 -2 35 -4 14 -1 63 -5 110 -9 138 -10 347 -53 491 -100 72 -23 220 -90 264
-118 177 -115 297 -250 376 -423 27 -61 65 -168 74 -215 29 -135 34 -167 44
-290 8 -102 6 -5268 -2 -5385 -3 -38 -8 -112 -12 -165 -3 -52 -8 -111 -10
-130 -2 -19 -7 -64 -11 -100 -3 -36 -8 -74 -10 -85 -2 -10 -6 -37 -10 -60 -9
-62 -33 -163 -55 -229 -129 -387 -381 -548 -999 -642 -25 -3 -54 -8 -65 -10
-72 -11 -214 -28 -272 -33 -10 -1 -13 -58 -13 -249 0 -240 1 -250 21 -268 21
-18 66 -19 1832 -19 l1812 0 25 21 25 22 0 246 c0 214 -2 246 -15 247 -28 1
-126 15 -164 24 -12 3 -32 7 -46 9 -25 4 -153 36 -300 75 -257 67 -449 138
-558 208 -139 88 -238 229 -315 448 -31 89 -74 264 -82 334 -3 30 -8 57 -10
60 -2 4 -6 33 -9 66 -4 33 -8 71 -11 85 -2 14 -7 63 -10 110 -4 47 -9 105 -12
130 -6 55 -16 5876 -9 5870 4 -4 115 -301 323 -860 35 -96 71 -191 78 -210 15
-36 367 -977 389 -1040 31 -85 218 -587 226 -605 12 -28 69 -180 90 -240 31
-90 361 -969 376 -1002 8 -17 14 -34 14 -37 0 -3 110 -302 246 -663 135 -362
261 -701 280 -753 20 -52 42 -111 50 -130 27 -68 115 -305 119 -320 4 -17 92
-250 135 -360 17 -41 30 -79 30 -83 0 -5 6 -23 14 -40 8 -18 38 -95 66 -172
46 -125 192 -517 272 -730 17 -44 34 -89 38 -100 5 -11 25 -65 45 -120 19 -55
40 -109 45 -120 5 -11 26 -66 46 -122 l38 -103 188 0 189 0 15 38 c8 20 19 46
24 57 5 11 59 146 120 300 61 154 115 289 120 300 5 11 106 263 225 560 119
297 222 554 229 570 7 17 28 68 46 115 18 47 38 99 45 115 7 17 57 140 110
275 54 135 103 259 110 275 8 17 90 224 185 460 94 237 175 439 180 450 5 11
41 101 80 200 39 99 75 189 80 200 5 11 199 495 430 1075 232 580 428 1069
436 1087 7 17 14 34 14 38 0 4 7 21 15 38 8 18 24 57 36 87 11 30 26 66 32 80
5 14 11 30 12 35 3 14 42 104 55 127 6 10 10 23 10 29 0 6 7 25 15 42 8 18 28
68 45 112 17 44 35 89 40 100 5 11 77 191 161 400 83 209 157 394 164 410 7
17 16 40 20 53 29 101 30 6 29 -3275 l-1 -3298 -22 -90 c-28 -115 -78 -203
-160 -286 -64 -64 -158 -133 -214 -157 -29 -12 -162 -48 -212 -56 -90 -15
-167 -26 -220 -31 -33 -3 -85 -7 -115 -10 -30 -3 -73 -8 -95 -10 -74 -7 -220
-18 -280 -20 -33 -1 -65 -3 -70 -4 -7 -1 -10 -86 -10 -246 0 -241 1 -245 23
-267 l23 -23 1985 0 1985 0 21 22 c20 21 21 34 22 259 0 130 -2 240 -5 246 -3
5 -30 11 -60 14 -128 10 -157 13 -219 23 -36 5 -83 12 -105 16 -32 4 -78 12
-115 20 -3 1 -25 5 -50 9 -53 9 -175 41 -245 63 -144 47 -309 177 -364 288
-13 27 -34 81 -45 119 l-21 71 -3 3345 c-3 3581 -5 3445 48 3600 57 166 162
253 370 310 108 30 383 85 480 96 30 3 57 8 60 9 6 4 150 17 210 20 l45 1 3
249 c2 246 2 248 -20 269 l-23 21 -1487 0 -1488 0 -1 -40 c0 -22 -2 -47 -4
-55 -1 -8 -6 -35 -10 -60 -18 -118 -107 -468 -166 -650 -17 -52 -33 -102 -34
-110 -5 -21 -78 -215 -190 -500 -20 -52 -52 -135 -71 -185 -19 -49 -43 -110
-53 -135 -11 -25 -34 -83 -51 -130 -18 -47 -36 -94 -41 -105 -5 -11 -38 -96
-75 -190 -36 -93 -76 -197 -89 -230 -175 -446 -282 -721 -300 -770 -13 -33
-56 -145 -97 -250 -77 -196 -209 -535 -304 -780 -30 -77 -59 -149 -64 -160 -8
-18 -207 -530 -250 -645 -39 -102 -142 -366 -151 -385 -5 -11 -90 -229 -189
-485 -100 -256 -209 -536 -243 -623 -33 -86 -64 -154 -67 -150 -4 5 -26 60
-50 123 -23 63 -62 165 -85 225 -24 61 -78 202 -120 315 -43 113 -97 255 -121
315 -23 61 -63 165 -88 231 -25 67 -50 132 -55 145 -6 13 -72 186 -147 384
-75 198 -163 430 -196 515 -33 85 -68 178 -78 205 -10 28 -27 73 -38 100 -10
28 -124 325 -251 660 -128 336 -249 651 -268 700 -79 204 -256 667 -318 835
-26 69 -53 139 -60 155 -7 17 -31 77 -52 135 -37 99 -457 1202 -545 1430 -22
58 -45 117 -50 133 -6 15 -13 28 -17 28 -3 1 -700 2 -1549 3 l-1543 1 -22 -23z"/>
</g>
</svg>
